<svg xmlns="http://www.w3.org/2000/svg" viewBox="0 0 60.45 68.07"><path class="cls-white" d="M14.31,25.81c-.26.55-.76,4.82-.55,5.04,1.09.24,3.5-.92,3.69-1.96.22-1.18-2.32-4.85-3.15-3.09Z"/><path class="cls-white" d="M39.34,27.11c-.97-1.49-2.78-2.22-3.7-3.31-1.67-2.01-3.79-7.22-6.79-6.15,1,1.21,2.67,2.24,3.35,3.66.64,1.33,2.4,7.25.61,7.86-3.62,1.23-3.31-4.67-5.04-7.22-1.2-1.78-6.9-5.8-8.91-7.77-1.69-1.66-3.38-4.59-4.61-5.65-.97-.84-4.49-2.34-6.12-3.32-1.13-.68-1.91-1.7-3.53-1.29-.24,1.83-1.14,4.14-.29,5.91.96,2,2.84.17,4.04.77,1.39.7,1.26,4.38,3.5,5.76,1.16.71,1.73-.16,2.59.04,1.84.41,2.2,3.87,3.17,5.47,1.31,2.16,5.29,6.28,5.99,8.08.58,1.5-.53,3.03.82,5.61.92,1.76,3.62,3.3,4.16,4.5.53,1.15-.26,2.22.19,3.49.89,2.49,4.7,3.36,2.7,7.21-4.59,1.77-6.25-3.73-8.04-4.54-1.43-.64-2.38.45-3.39.21-1.38-.33-5.32-3.9-6.66-4.69-1.36-.81-4.42-1.93-5.63-.4-2.6,3.29,3.29,4.56,5.17,6.25,1.92,1.73,4.72,7.1,5.66,7.82,1.31.99,4.3,1.2,6.05,2.03,1.33.63,2.48,2.04,3.51,2.42,7.41,2.71,7.49-4.7,11.5-8.18,3.52-3.06,4.89-.94,6.82-7.2,1.85-6.03-2.81-6.82-4.93-10.94-.94-1.83-.91-4.39-2.22-6.41Z"/><path class="cls-white" d="M24,42.18c.69-.68-1.23-3.05-2.15-3.23-.73,1.38.92,4.44,2.15,3.23Z"/><path class="cls-white" d="M51.78,47.77c-.26.02-2.03,1.19-2.18,1.43-.87,1.36,2.83,7.05,4.24,6.92,4.86-.43,1.39-8.56-2.06-8.35Z"/><path class="cls-black" d="M55.78,46.26c-.85-.61-4.07-1.81-4.19-2.01-.23-.37-.16-1.96-.45-3.34h.18c.21,0,.4-.04.58-.13.19-.06.35-.16.48-.31.15-.14.25-.3.31-.48.09-.18.14-.37.13-.58-.02-.13-.04-.27-.05-.4-.07-.25-.2-.47-.39-.66l-.3-.23c-.23-.14-.49-.2-.76-.2h-1.13c-.17,0-.32.03-.47.09-.52-.75-1.13-1.53-1.74-2.3.64-.04,1.28-.18,1.88-.43.2-.05.37-.14.51-.27.16-.11.29-.25.39-.42.19-.32.27-.8.15-1.16-.12-.36-.34-.71-.69-.9-.33-.18-.79-.3-1.16-.15-.36.15-.73.24-1.1.31-.34.03-.68.03-1.02,0-.04,0-.07-.01-.11-.02-.34-.07-.68-.05-1,.08-.18-.29-.35-.58-.48-.86-.04-.08-.07-.14-.1-.22.88-.37,1.77-.74,2.65-1.11.38-.16.68-.32.9-.69.19-.32.27-.8.15-1.16-.12-.36-.34-.71-.69-.9-.33-.17-.79-.3-1.16-.15-1.03.43-2.06.86-3.09,1.29-1.09-2.58-1.07-2.94-4.4-6.97-2.87-3.49-4.22-6.95-9.11-8.15-1.85-.45-6.2-.13-7.02-.49-1.47-.65-4.05-5.42-5.67-6.77-1.38-1.15-3.69-1.82-5.31-2.78C8.98,1.7,6.33-2.3,2.15,1.73.24,3.56-.66,9.47.55,11.45c.84,1.38,5.29,3.42,6.57,4.49,1.55,1.29,2.57,4.8,5.56,4.15-4.45,5.38-5.74,18.77,4.85,15.63v3.77c-2.6-1.24-5.68-4.49-8.65-3.54-4.31,1.38-6.27,5.2-5.26,9.63.78,3.42,4.63,2.54,6.21,3.77,3.83,2.98,3.18,7.3,8.78,9.82,2.32,1.04,5.72,2.85,7.7,3.62,1.26.49,4.63.7,5.13,1.07.38.29.3,1.39.8,1.9.22.22,3.29,2.16,3.5,2.21,3.48.85,12.53-4.29,14.62-7.26.41-.58.54-1.75.62-1.81.22-.18,2.8,1.42,5.42.85,7.11-1.54,3.57-10.5-.61-13.49ZM17.45,28.9c-.2,1.04-2.61,2.2-3.69,1.96-.22-.23.29-4.5.55-5.04.83-1.76,3.37,1.91,3.15,3.09ZM39.68,51.66c-4.01,3.49-4.1,10.9-11.5,8.18-1.04-.38-2.18-1.79-3.51-2.42-1.75-.83-4.74-1.04-6.05-2.03-.94-.72-3.74-6.09-5.66-7.82-1.88-1.7-7.77-2.96-5.17-6.25,1.21-1.53,4.27-.41,5.63.4,1.34.79,5.28,4.36,6.66,4.69,1,.24,1.96-.85,3.39-.21,1.79.8,3.46,6.31,8.04,4.54,2-3.85-1.81-4.72-2.7-7.21-.45-1.28.34-2.34-.19-3.49-.55-1.19-3.25-2.74-4.16-4.5-1.35-2.58-.23-4.11-.82-5.61-.7-1.8-4.69-5.92-5.99-8.08-.97-1.6-1.33-5.06-3.17-5.47-.87-.19-1.43.68-2.59-.04-2.24-1.37-2.11-5.06-3.5-5.76-1.2-.6-3.07,1.23-4.04-.77-.85-1.77.05-4.08.29-5.91,1.62-.41,2.4.61,3.53,1.29,1.63.98,5.15,2.48,6.12,3.32,1.23,1.06,2.92,3.99,4.61,5.65,2.01,1.97,7.71,6,8.91,7.77,1.73,2.55,1.42,8.45,5.04,7.22,1.79-.61.03-6.53-.61-7.86-.68-1.42-2.35-2.45-3.35-3.66,3-1.06,5.11,4.15,6.79,6.15.6.72,1.6,1.29,2.49,2.02-.38.26-.74.54-1.06.86-.54.53-1.01,1.15-1.36,1.81-.19.35-.26.77-.15,1.16.1.35.36.72.69.9.35.18.77.28,1.16.15.36-.12.71-.34.9-.69.14-.26.3-.5.48-.74.25-.3.52-.57.82-.81.1-.08.22-.14.33-.21.45,1.07.68,2.21.95,3.28,0,.05.01.09.02.13-.16.07-.31.16-.43.29-.17.18-.29.4-.36.63-.02-.01-.04-.03-.06-.04-.12-.05-.24-.1-.36-.15-.27-.07-.53-.07-.8,0l-1.13.37c-.2.05-.37.14-.51.27-.16.11-.29.25-.39.42-.11.17-.17.36-.18.56-.04.2-.04.4.03.6l.15.36c.13.23.31.4.54.54.12.05.24.1.36.15.27.07.53.07.8,0,.38-.12.75-.24,1.13-.37.12-.03.24-.08.34-.15v.9c0,.38.17.79.44,1.06.15.15.36.27.58.35-.28.2-.51.48-.59.82l-.38,1.51c-.06.2-.07.4-.03.6,0,.2.07.39.18.56.09.17.22.32.39.42.14.13.31.22.51.27.13.02.27.04.4.05.27,0,.52-.07.76-.2.32-.21.59-.51.69-.9.13-.5.25-1,.38-1.51.06-.2.07-.4.03-.6,0-.2-.07-.39-.18-.56-.09-.17-.22-.32-.39-.42-.12-.11-.26-.18-.42-.23.07-.05.13-.1.19-.16.27-.29.44-.65.44-1.06v-.41c1.31,1.49,2.77,2.61,3.47,4.25-.02,0-.04-.02-.05-.02-.27-.07-.53-.07-.8,0-.38.13-.75.25-1.13.38-.2.05-.37.14-.51.27-.16.11-.29.25-.39.42-.11.17-.17.36-.18.56-.04.2-.04.4.03.6l.15.36c.13.23.31.4.54.54.12.05.24.1.36.15.27.07.53.07.8,0l1.13-.38c.17-.04.31-.12.44-.22-.05.58-.17,1.22-.39,1.94-1.92,6.26-3.3,4.14-6.82,7.2ZM21.85,38.95c.92.18,2.84,2.56,2.15,3.23-1.23,1.21-2.88-1.85-2.15-3.23ZM53.84,56.12c-1.42.13-5.12-5.56-4.24-6.92.16-.24,1.92-1.42,2.18-1.43,3.45-.2,6.92,7.92,2.06,8.35Z"/></svg>