<svg xmlns="http://www.w3.org/2000/svg" viewBox="0 0 61.65 78.95"><path class="cls-black" d="M58.58,46.56c.07.14,1.73,0,1.12,2.21-.18.65-1.5.7-1.87,1.35,4.03,1.82,6.06,4.54-.02,4.67-.89,2.22,2.16,2,1.86,3.41l-3.03,2.48c.33.66.91,1.26,1.03,2.01.24,1.52,1.43,7.96.79,8.56-1.64,1.53-4.38.44-6.24,1.26-1.32.58-2,2.73-2.96,3.43-.63.47-5.35,2.36-6.13,2.45-2.89.34-5.43-1.86-7.3-1.69-3.59.33-7.87,4.62-11.25.42-1.39-1.73-1.37-4.53-2.19-6.51-1.9-4.56-5.34-3.55-8.41-6.51-1.95-1.88-9.29-11.85-9.99-14.26-.41-1.42-.14-2.94-.56-4.41-.95-3.25-4.19-3.78-3.31-8.22.31-1.56,2.8-6,4.52-6.04,1.27-.03,12.44,6.81,11.52,9.93,1.97-.62.58-2.54.59-4.01,0-3.38.6-7.96,0-11.19-.69-3.7-2.36-9.93-3.51-13.27-2.14-6.24,2.04-15.85,9.7-11.57,3.25,1.82,2.1,4.47,3.52,7.05,1.11,2.01,4.52,3.77,5.23,6.62,5.29-.64,7.54-1.61,11.52,2.73.98,1.07,1.26,2.56,2.18,3.42,1.94,1.81,6.43,3.83,8.32,5.98,1.88,2.15,4.86,12.34,5.19,15.36.16,1.43-.46,4.11-.34,4.35ZM21.77,4.43c-3.16-.45-4.31,1.92-4.39,4.68-.1,3.4,1.83,1.94,2.42,3.82.83,2.66-.69,5.57-.4,7.8.22,1.74,1.84,3.07,2.06,4.12.53,2.6,1.17,13.75.92,16.48-.21,2.28-2.23,4.09-2.44,6.37-.2,2.19,2.18,6.84-1.55,6.47s-2.22-7.17-3.87-9.8c-.67-1.07-1.69-1.15-2.35-2.04-.88-1.19-1.12-2.98-2.23-4-3.47-3.2-7.56-1.89-4.62,2.77.7.12,2.85-2.8,4.32.63,1.39,3.23-.91,4.76-.94,7.12-.06,3.76,3.92,6.85,6.23,9.35.86.94,1.35,2.54,2.07,3.22,1.64,1.54,7.79,3.75,10.04,3.33.28-4.12,2.68-2.9,5.31-4.71.28-1.9-3.35-.15-3.72-1.86-.2-.94,1.16-1.7,1.84-1.91,3.37-1.02,3.76,1.56,4.17,1.63,1.75.28,4.18-1.26,6.11-1.26,1.39,0,2.76.81,4.36.68,2.1-.17,4.19-3.11,7.01-2.67l1.37-8.57c-.37-.3-5.83,1.15-4.96-.93l5.55-3.11c-2.58-4.76-1.52-12.08-6.49-15.24-.67,1.29.83,2.65.92,4.11s-.63,2.53-.63,3.69c0,1.39,1.72,6.14-.9,6.33-4.74.34-3.86-8.85-4.33-11.67-.34-2.03-2.68-10.57-4.51-11.08-1.49-.31-3.76.43-3.93,2.09.96,2.46.33,5.06.67,7.43.4,2.8,2.58,5.61,1.18,9.02l-3.4-.59c-.96-4.56-3.55-8.24-2.79-13.06-3.28,1.09-7.55-.96-3.11-3.42l-2.39-1.02-.1-3.02h3.11c-.48-3.54-2.07-2.09-4.52-3.25-1.75-.82-2.64-2.27-2.3-4.2l1.85-.02-.63-3.73ZM49.12,58.52l.94,1.23,1.53-.93-.92-.92-1.55.62ZM46.45,61.79c-2.18-2.61-8.71-2.59-10.06.46-1.14,2.57.16,10.22,2.78,11.49,7.06,3.42,11.43-6.98,7.28-11.95Z"/><path class="cls-white" d="M21.77,4.43l.63,3.73-1.85.02c-.34,1.93.56,3.37,2.3,4.2,2.45,1.16,4.04-.29,4.52,3.24h-3.11s.1,3.03.1,3.03l2.39,1.02c-4.44,2.45-.18,4.5,3.11,3.42-.76,4.82,1.83,8.5,2.79,13.06l3.4.59c1.4-3.41-.78-6.22-1.18-9.02-.34-2.37.29-4.97-.67-7.43.17-1.66,2.44-2.4,3.93-2.09,1.82.5,4.17,9.05,4.51,11.08.47,2.82-.4,12.01,4.33,11.67,2.62-.19.9-4.93.9-6.33,0-1.16.72-2.27.63-3.69s-1.59-2.82-.92-4.11c4.97,3.16,3.91,10.47,6.49,15.24l-5.55,3.11c-.87,2.08,4.6.63,4.96.93l-1.37,8.57c-2.82-.44-4.91,2.5-7.01,2.67-1.6.13-2.97-.68-4.36-.68-1.93,0-4.36,1.54-6.11,1.26-.41-.07-.8-2.65-4.17-1.63-.68.21-2.05.97-1.84,1.91.37,1.72,4-.03,3.72,1.86-2.63,1.81-5.03.59-5.31,4.71-2.25.42-8.4-1.79-10.04-3.33-.72-.67-1.2-2.28-2.07-3.22-2.31-2.51-6.29-5.59-6.23-9.35.04-2.36,2.33-3.88.94-7.12-1.47-3.44-3.62-.51-4.32-.63-2.94-4.67,1.14-5.98,4.62-2.77,1.11,1.02,1.34,2.81,2.23,4,.66.89,1.68.98,2.35,2.04,1.65,2.63.31,9.44,3.87,9.8s1.35-4.29,1.55-6.47c.21-2.28,2.23-4.09,2.44-6.37.25-2.72-.39-13.88-.92-16.48-.21-1.05-1.83-2.39-2.06-4.12-.29-2.24,1.23-5.14.4-7.8-.59-1.88-2.52-.43-2.42-3.82.08-2.76,1.22-5.13,4.39-4.68ZM30.29,41.24c-.74.23-1.19.89-1.68,1.43-.53,2.59,7.47.75,7.44,0-1.16-1.81-3.86-2-5.76-1.42ZM45.39,41.11c-2.02-.19-4.2-.19-3.72,2.48,2.02.19,4.2.19,3.72-2.48ZM41.51,45.56c-1.27.13-2.76,1.05-3.57,2.07,0,1.1,4.02,1.28,4.97.63,1.35-1.37.57-2.91-1.41-2.71ZM30.77,46.24c-2.01.18-2.05,3.92,1.21,2.91,2.07-.65.17-3.03-1.21-2.91ZM51.51,49.91l-5.5-.09.06,2.1,1.34.88,4.2-.5-.1-2.39ZM37.3,52.91c-.89,3.67,5.83,3.04,6.18.86.49-3.04-4.25-1.33-5.22-1.45-1.68-.21-3.62-3.56-7.17-1.26l.27,1.89.75.49,5.18-.53Z"/><path class="cls-white" d="M46.45,61.79c4.14,4.97-.22,15.37-7.28,11.95-2.62-1.27-3.92-8.92-2.78-11.49,1.35-3.05,7.89-3.07,10.06-.46Z"/><polygon class="cls-white" points="49.12 58.52 50.67 57.9 51.59 58.82 50.06 59.75 49.12 58.52"/><path class="cls-black" d="M37.3,52.91l-5.18.53-.75-.49-.27-1.89c3.55-2.3,5.49,1.06,7.17,1.26.97.12,5.71-1.59,5.22,1.45-.35,2.18-7.07,2.81-6.18-.86Z"/><path class="cls-black" d="M30.29,41.24c1.91-.58,4.6-.39,5.76,1.42.03.76-7.97,2.6-7.44,0,.49-.54.93-1.2,1.68-1.43Z"/><polygon class="cls-black" points="51.51 49.91 51.61 52.29 47.41 52.79 46.08 51.92 46.01 49.82 51.51 49.91"/><path class="cls-black" d="M41.51,45.56c1.98-.2,2.76,1.33,1.41,2.71-.95.65-4.98.47-4.97-.63.81-1.02,2.29-1.94,3.57-2.07Z"/><path class="cls-black" d="M45.39,41.11c.47,2.67-1.7,2.67-3.72,2.48-.47-2.67,1.7-2.67,3.72-2.48Z"/><path class="cls-black" d="M30.77,46.24c1.38-.12,3.29,2.26,1.21,2.91-3.26,1.02-3.22-2.73-1.21-2.91Z"/></svg>